<?xml version="1.0" encoding="UTF-8"?>
<!DOCTYPE svg PUBLIC "-//W3C//DTD SVG 1.1//EN" "http://www.w3.org/Graphics/SVG/1.1/DTD/svg11.dtd">
<!-- Creator: CorelDRAW 2020 (64-Bit) -->
<svg xmlns="http://www.w3.org/2000/svg" xml:space="preserve" width="45.3059mm" height="45.9974mm" version="1.1" style="shape-rendering:geometricPrecision; text-rendering:geometricPrecision; image-rendering:optimizeQuality; fill-rule:evenodd; clip-rule:evenodd"
viewBox="0 0 4530.6 4599.75"
 xmlns:xlink="http://www.w3.org/1999/xlink"
 xmlns:xodm="http://www.corel.com/coreldraw/odm/2003">
 <defs>
  <style type="text/css">
   <![CDATA[
    .str0 {stroke:#FEFEFE;stroke-width:70.56;stroke-miterlimit:22.9256}
    .fil4 {fill:none}
    .fil0 {fill:#FEFEFE}
    .fil2 {fill:#EBECEC}
    .fil1 {fill:#E8E8E8}
    .fil5 {fill:#E31E24}
    .fil3 {fill:url(#id1)}
   ]]>
  </style>
    <clipPath id="id0">
     <path d="M2265.31 807.4c843.36,0 1527.04,683.68 1527.04,1527.05 0,843.37 -683.68,1527.05 -1527.04,1527.05 -843.37,0 -1527.05,-683.68 -1527.05,-1527.05 0,-843.37 683.68,-1527.05 1527.05,-1527.05z"/>
    </clipPath>
  <radialGradient id="id1" gradientUnits="userSpaceOnUse" gradientTransform="matrix(1.41422 -0 -0 1.41421 -938 -967)" cx="2265.3" cy="2334.46" r="1527.05" fx="2265.3" fy="2334.46">
   <stop offset="0" style="stop-opacity:1; stop-color:#FFED00"/>
   <stop offset="1" style="stop-opacity:1; stop-color:#FBBA00"/>
  </radialGradient>
 </defs>
 <g id="Layer_x0020_1">
  <metadata id="CorelCorpID_0Corel-Layer"/>
  <g id="_1933463060816">
   <circle class="fil0" cx="2265.3" cy="2334.44" r="2265.3"/>
   <path class="fil1" d="M1950.87 297.4l0 258.14c-56.06,11.17 -123.38,22.4 -190.7,44.91l-112.36 -235.73 -145.69 44.8 56.06 258.25c-56.06,22.43 -123.61,44.84 -179.67,78.58l-157.16 -201.96 -134.64 89.64 112.33 224.59c-56.27,44.92 -101.1,78.46 -157.16,123.5l-202.16 -157.16 -112.15 112.12 168.41 190.82c-22.51,33.69 -45.03,56.18 -67.32,78.69 -22.51,22.32 -33.77,56.06 -56.29,78.49l-235.53 -112.26 -89.84 134.67 213.25 157.15c-33.78,56.06 -67.35,112.24 -89.84,168.42l-258.05 -56.18 -45.03 145.9 235.73 112.27c-22.49,67.32 -33.54,123.38 -44.8,190.7l-269.51 0 -11.05 157.18 258.04 56.15c-11.26,67.35 -11.26,123.41 0,190.85l-258.04 56.06 11.05 157.15 269.51 0c11.26,67.32 22.31,123.41 33.57,190.82l-224.5 112.24 45.03 145.93 258.05 -56.18c22.49,56.18 45.01,112.24 78.58,168.3l-201.99 168.41 89.84 123.41 235.53 -112.15c33.78,56.09 78.58,101.01 123.61,157.16l-168.41 201.99 112.15 101.09 202.16 -157.15c22.31,22.31 44.83,44.8 78.58,67.23 22.31,22.49 44.83,33.74 78.58,56.15l-112.33 235.73 134.64 78.49 157.16 -201.99c56.06,33.69 112.35,56.09 179.67,89.75l-56.06 247 145.69 44.8 112.36 -224.48c67.32,22.52 123.38,33.78 190.7,44.92l0 258.17 157.18 11.23 56.07 -246.88c67.32,0 134.63,0 202.16,0l56.09 246.88 157.15 -11.23 0 -258.17c56.07,-11.14 123.38,-33.66 190.73,-44.92l112.12 235.74 146.14 -56.06 -56.3 -247c56.3,-22.4 123.62,-56.06 179.68,-89.75l157.15 201.99 134.67 -78.49 -112.35 -235.73c56.26,-33.66 101.09,-78.58 157.15,-123.38l202.19 168.21 112.13 -112.15 -168.42 -201.99c22.52,-22.49 45.04,-45.01 67.35,-67.41 22.49,-33.66 33.75,-56.18 56.26,-78.58l235.53 100.98 89.84 -123.41 -213.22 -157.15c33.55,-67.32 67.32,-123.38 89.84,-179.56l258.05 56.18 45.01 -145.93 -224.48 -112.24c11.26,-56.15 22.49,-123.5 33.54,-190.82l269.51 0 11.26 -145.89 -246.99 -56.18c0,-67.32 0,-134.64 0,-201.99l0 0 246.99 -56.15 -11.26 -157.18 -269.51 0c-11.05,-56.06 -22.28,-123.38 -44.8,-179.47l235.74 -112.33 -45.01 -145.81 -258.05 56.06c-22.52,-67.32 -44.83,-123.5 -78.58,-179.56l201.96 -157.15 -89.84 -134.67 -235.53 112.26c-33.77,-56.17 -78.57,-101 -123.61,-145.92l168.42 -202.08 -112.13 -112.12 -202.19 157.16c-22.31,-22.52 -44.8,-45.04 -78.37,-56.18 -22.52,-22.4 -45.01,-44.92 -78.78,-56.18l112.35 -235.73 -134.67 -89.64 -157.15 201.96c-56.06,-22.49 -112.15,-56.15 -179.68,-78.58l56.3 -246.99 -146.14 -56.06 -112.12 235.73c-56.09,-22.51 -123.41,-33.74 -190.73,-44.91l0 -258.14 -157.15 -22.52 -56.09 258.26c-67.53,-11.26 -134.84,-11.26 -202.16,0l-56.07 -258.26 -157.18 22.52zm1403 2895.71c-482.55,583.63 -1357.97,684.63 -1952.84,213.25 -606.14,-471.38 -695.98,-1335.57 -224.51,-1919.19 482.55,-594.88 1357.97,-684.72 1952.85,-213.33 606.14,471.38 695.97,1324.39 224.5,1919.27l0 0z"/>
   <path class="fil2" d="M2108.05 274.88l-157.18 22.52 157.18 -22.52zm1245.82 2918.23c-482.55,583.63 -1357.97,684.63 -1952.84,213.25 -606.14,-471.38 -695.98,-1335.57 -224.51,-1919.19 482.55,-594.88 1357.97,-684.72 1952.85,-213.33 606.14,471.38 695.97,1324.39 224.5,1919.27l0 0z"/>
   <circle class="fil0" cx="2265.3" cy="2334.44" r="1667.27"/>
   <path class="fil3" d="M2265.31 807.4c843.36,0 1527.04,683.68 1527.04,1527.05 0,843.37 -683.68,1527.05 -1527.04,1527.05 -843.37,0 -1527.05,-683.68 -1527.05,-1527.05 0,-843.37 683.68,-1527.05 1527.05,-1527.05z"/>
   <g style="clip-path:url(#id0)">
    <g>
     <polygon id="1" class="fil0" points="1866.37,3878.83 2265.32,790.09 2664.24,3878.83 "/>
    </g>
   </g>
   <path class="fil4" d="M2265.31 807.4c843.36,0 1527.04,683.68 1527.04,1527.05 0,843.37 -683.68,1527.05 -1527.04,1527.05 -843.37,0 -1527.05,-683.68 -1527.05,-1527.05 0,-843.37 683.68,-1527.05 1527.05,-1527.05z"/>
   <path class="fil0" d="M1950.87 555.54l0 -258.13c209.53,-75.74 419.09,-58.9 628.65,0l0 258.13c-224.03,-33.92 -435.52,-38.44 -628.65,0z"/>
   <circle class="fil5 str0" cx="2265.3" cy="349.36" r="314.07"/>
  </g>
 </g>
</svg>
