<svg id="Layer_1" data-name="Layer 1" xmlns="http://www.w3.org/2000/svg" xmlns:xlink="http://www.w3.org/1999/xlink" viewBox="0 0 499.78 107.25"><defs><style>.cls-1,.cls-3{fill:none;}.cls-2{fill:#d12023;}.cls-2,.cls-5,.cls-6,.cls-7,.cls-9{fill-rule:evenodd;}.cls-10,.cls-3{stroke:#fefefe;}.cls-3{stroke-linecap:round;stroke-linejoin:round;stroke-width:0.22px;}.cls-4,.cls-9{fill:#fefefe;}.cls-5{fill:#e8e8e8;}.cls-6{fill:#ebecec;}.cls-7{fill:url(#radial-gradient);}.cls-8{clip-path:url(#clip-path);}.cls-10{fill:#e31e24;stroke-miterlimit:10;stroke-width:2px;}.cls-11{fill:#727271;}</style><radialGradient id="radial-gradient" cx="4135.36" cy="-10650.85" r="1254.03" gradientTransform="matrix(0.04, 0, 0, -0.04, -80.46, -370.55)" gradientUnits="userSpaceOnUse"><stop offset="0" stop-color="#ffed00"/><stop offset="1" stop-color="#fbba00"/></radialGradient><clipPath id="clip-path"><circle class="cls-1" cx="85.32" cy="56.41" r="35.55" transform="translate(15.74 131.38) rotate(-80.61)"/></clipPath></defs><polygon class="cls-2" points="0 34.17 499.78 34.17 499.78 83.7 0 83.7 0 34.17"/><path class="cls-3" d="M174.26,53V64.91h-1.8V53Zm3.35,11.94,2.51-12.84,4.1,9.28,4.24-9.28,2.26,12.84h-1.85l-1.14-7.21-3.54,7.77-3.44-7.78-1.28,7.22ZM196,60.06v4.85h-1.81V53h2a8.62,8.62,0,0,1,2.36.23,3.17,3.17,0,0,1,1.91,1.66,3.65,3.65,0,0,1,.4,1.65,3.36,3.36,0,0,1-1.05,2.54,4.16,4.16,0,0,1-3,1Zm0-1.67h.67a2.91,2.91,0,0,0,1.87-.48,1.75,1.75,0,0,0,.61-1.42,1.64,1.64,0,0,0-.67-1.43,3.26,3.26,0,0,0-1.89-.43H196Zm14.24-3.73h-4.79v2.86h4.64v1.7h-4.64v4h4.79v1.7h-6.6V53h6.6Zm7.3,5.16,3.7,5.09H219L215.58,60h-.32v4.89h-1.81V53h2.12a8.72,8.72,0,0,1,1.87.16,3.52,3.52,0,0,1,1.27.53,3.11,3.11,0,0,1,1.06,1.23,3.5,3.5,0,0,1,.37,1.59,3.34,3.34,0,0,1-.73,2.16,3.18,3.18,0,0,1-1.91,1.18Zm-2.24-1.38h.57a3.07,3.07,0,0,0,1.8-.43,1.72,1.72,0,0,0,.75-1.52,1.59,1.59,0,0,0-.7-1.41,3.08,3.08,0,0,0-1.78-.42h-.64ZM225.69,53V64.91h-1.81V53Zm10.77,9h-5.11L230,64.91h-1.94L234,52.21l5.69,12.7h-2Zm-.73-1.69L234,56.25l-1.85,4.06ZM243.88,53V63.21h3.52v1.7h-5.32V53Zm19.42.65v2.13a5.84,5.84,0,0,0-1.42-.94,4.64,4.64,0,0,0-1.8-.37,4.15,4.15,0,0,0-2.26.64,4.21,4.21,0,0,0-1.65,1.84A4.65,4.65,0,0,0,255.7,59a4.37,4.37,0,0,0,4.38,4.46,4.25,4.25,0,0,0,1.62-.31,6.79,6.79,0,0,0,1.6-1.05v2.17a6.43,6.43,0,0,1-3.24.89,6.11,6.11,0,0,1-3-.76,6.16,6.16,0,0,1-3.2-5.38,6.29,6.29,0,0,1,.73-2.92,6.19,6.19,0,0,1,2.39-2.5,6.26,6.26,0,0,1,3.19-.84A6,6,0,0,1,263.3,53.62Zm8.76-.88A6.27,6.27,0,0,1,278.27,59a6.08,6.08,0,0,1-.83,3.08,6.22,6.22,0,0,1-2.25,2.25,6.31,6.31,0,0,1-3.22.86,6.2,6.2,0,0,1-3-.77,6,6,0,0,1-2.54-2.54,6.31,6.31,0,0,1-.68-2.94,5.87,5.87,0,0,1,1.91-4.38A6.22,6.22,0,0,1,272.06,52.74Zm0,1.7a4.2,4.2,0,0,0-3.4,1.57,4.47,4.47,0,0,0-1,2.9,4.31,4.31,0,0,0,1.33,3.26A4.26,4.26,0,0,0,272,63.44a4.46,4.46,0,0,0,2.31-.63,4.3,4.3,0,0,0,1.64-1.72,4.61,4.61,0,0,0,.52-2.15,4.52,4.52,0,0,0-1.27-3.21A4.27,4.27,0,0,0,272,54.44Zm9,10.47,2.51-12.84,4.1,9.28,4.24-9.28,2.26,12.84h-1.85l-1.14-7.21-3.54,7.77-3.44-7.78-1.28,7.22Zm18.34-4.85v4.85h-1.8V53h2a8.62,8.62,0,0,1,2.36.23,3.2,3.2,0,0,1,1.91,1.66,3.64,3.64,0,0,1,.39,1.65,3.35,3.35,0,0,1-1,2.54,4.16,4.16,0,0,1-3,1Zm0-1.67H300a2.91,2.91,0,0,0,1.87-.48,1.75,1.75,0,0,0,.61-1.42,1.64,1.64,0,0,0-.67-1.43,3.26,3.26,0,0,0-1.89-.43h-.6ZM311,59.82l3.7,5.09h-2.2L309.13,60h-.33v4.89H307V53h2.11a8.66,8.66,0,0,1,1.87.16,3.57,3.57,0,0,1,1.28.53,3.19,3.19,0,0,1,1.06,1.23,3.64,3.64,0,0,1,.37,1.59,3.4,3.4,0,0,1-.73,2.16A3.18,3.18,0,0,1,311,59.82Zm-2.24-1.38h.58a3.05,3.05,0,0,0,1.79-.43,1.71,1.71,0,0,0,.76-1.52,1.62,1.62,0,0,0-.7-1.41,3.11,3.11,0,0,0-1.79-.42h-.64v3.78ZM324,54.66h-4.8v2.86h4.65v1.7h-4.65v4H324v1.7h-6.6V53H324Zm10,.09-1.46.86a3.65,3.65,0,0,0-.57-.75,1.73,1.73,0,0,0-1.21-.42,1.86,1.86,0,0,0-1.28.44,1.39,1.39,0,0,0-.47,1,1.16,1.16,0,0,0,.57,1,2.45,2.45,0,0,0,.5.3c.16.08.64.28,1.42.6a5,5,0,0,1,2.14,1.45,3.32,3.32,0,0,1,.66,2.06,3.68,3.68,0,0,1-1.21,2.84,3.73,3.73,0,0,1-2.63,1,3.6,3.6,0,0,1-3.12-1.6,4.37,4.37,0,0,1-.69-1.93l1.82-.4a3.74,3.74,0,0,0,.34,1.31,1.74,1.74,0,0,0,.7.67,2.14,2.14,0,0,0,1,.25,1.88,1.88,0,0,0,1.48-.65,2,2,0,0,0,.48-1.35,1.76,1.76,0,0,0-.83-1.56,4.79,4.79,0,0,0-.55-.32l-1.48-.63c-1.63-.69-2.45-1.7-2.45-3a2.84,2.84,0,0,1,1.37-2.5,3.91,3.91,0,0,1,2.22-.66,3.44,3.44,0,0,1,1.85.48A4.25,4.25,0,0,1,334,54.75Zm10.12,0-1.46.86a3.05,3.05,0,0,0-.57-.75,1.7,1.7,0,0,0-1.21-.42,1.85,1.85,0,0,0-1.27.44,1.35,1.35,0,0,0-.47,1,1.15,1.15,0,0,0,.56,1,2.8,2.8,0,0,0,.51.3c.16.08.63.28,1.42.6a4.85,4.85,0,0,1,2.13,1.45,3.26,3.26,0,0,1,.67,2.06,3.75,3.75,0,0,1-3.84,3.82,3.57,3.57,0,0,1-3.12-1.6,4.5,4.5,0,0,1-.7-1.93l1.82-.4a4,4,0,0,0,.34,1.31,1.77,1.77,0,0,0,.71.67,2.08,2.08,0,0,0,1,.25,1.85,1.85,0,0,0,1.47-.65,2,2,0,0,0,.49-1.35,1.78,1.78,0,0,0-.83-1.56,4.79,4.79,0,0,0-.55-.32l-1.48-.63c-1.63-.69-2.45-1.7-2.45-3a2.83,2.83,0,0,1,1.36-2.5,4,4,0,0,1,2.22-.66,3.42,3.42,0,0,1,1.85.48,4.16,4.16,0,0,1,1.38,1.53Zm9-2A6.25,6.25,0,0,1,359.42,59a6.08,6.08,0,0,1-.83,3.08,6.22,6.22,0,0,1-2.25,2.25,6.29,6.29,0,0,1-3.22.86,6.14,6.14,0,0,1-3-.77,6.06,6.06,0,0,1-2.55-2.54,6.3,6.3,0,0,1-.67-2.94,5.83,5.83,0,0,1,1.91-4.38A6.18,6.18,0,0,1,353.21,52.74Zm0,1.7A4.16,4.16,0,0,0,349.8,56a4.41,4.41,0,0,0-1,2.9,4.31,4.31,0,0,0,1.33,3.26,4.24,4.24,0,0,0,3.05,1.27,4.48,4.48,0,0,0,3.95-2.35,4.61,4.61,0,0,0,.51-2.15,4.48,4.48,0,0,0-1.27-3.21,4.26,4.26,0,0,0-3.14-1.29Zm13.43,5.38,3.7,5.09h-2.2L364.71,60h-.33v4.89h-1.8V53h2.11a8.66,8.66,0,0,1,1.87.16,3.65,3.65,0,0,1,1.28.53,3.19,3.19,0,0,1,1.06,1.23,3.64,3.64,0,0,1,.37,1.59,3.4,3.4,0,0,1-.73,2.16,3.18,3.18,0,0,1-1.92,1.18Zm-2.24-1.38H365a3.05,3.05,0,0,0,1.79-.43,1.71,1.71,0,0,0,.76-1.52,1.62,1.62,0,0,0-.7-1.41,3.11,3.11,0,0,0-1.79-.42h-.64Zm15.38-3.69-1.46.86a3.05,3.05,0,0,0-.57-.75,1.69,1.69,0,0,0-1.2-.42,1.86,1.86,0,0,0-1.28.44,1.35,1.35,0,0,0-.47,1,1.15,1.15,0,0,0,.56,1,2.8,2.8,0,0,0,.51.3c.16.08.63.28,1.42.6a4.85,4.85,0,0,1,2.13,1.45,3.26,3.26,0,0,1,.67,2.06,3.73,3.73,0,0,1-3.84,3.82,3.57,3.57,0,0,1-3.12-1.6,4.5,4.5,0,0,1-.7-1.93l1.83-.4a3.53,3.53,0,0,0,.34,1.31,1.68,1.68,0,0,0,.7.67,2.08,2.08,0,0,0,1,.25,1.85,1.85,0,0,0,1.47-.65,2,2,0,0,0,.49-1.35,1.78,1.78,0,0,0-.83-1.56,4.79,4.79,0,0,0-.55-.32l-1.48-.63c-1.63-.69-2.45-1.7-2.45-3a2.83,2.83,0,0,1,1.36-2.5,4,4,0,0,1,2.23-.66,3.47,3.47,0,0,1,1.85.48,4.23,4.23,0,0,1,1.37,1.53Zm9.66,5.31v4.85h-1.81V53h2a8.62,8.62,0,0,1,2.36.23,3.17,3.17,0,0,1,1.91,1.66,3.65,3.65,0,0,1,.4,1.65,3.36,3.36,0,0,1-1.05,2.54,4.16,4.16,0,0,1-3,1Zm0-1.67h.67a2.91,2.91,0,0,0,1.87-.48,1.75,1.75,0,0,0,.61-1.42,1.64,1.64,0,0,0-.67-1.43,3.26,3.26,0,0,0-1.89-.43h-.59ZM397.66,53l3.3,8.27L404.31,53h2l-5.35,12.84L395.69,53Zm15,1.69V64.91h-1.81V54.66h-2.74V53h7.28v1.69ZM418.24,63a1.08,1.08,0,1,1-.76,1.84,1.1,1.1,0,0,1-.32-.78,1,1,0,0,1,.32-.74A1.12,1.12,0,0,1,418.24,63Zm10.88-10V63.21h3.51v1.7h-5.32V53Zm8.65,1.69V64.91H436V54.66h-2.74V53h7.28v1.69ZM443,64.91V53h2.51a9.07,9.07,0,0,1,3,.41,5.44,5.44,0,0,1,3,2.54,6.1,6.1,0,0,1,.73,3,5.62,5.62,0,0,1-2.38,4.83,5.55,5.55,0,0,1-1.85.9,9.94,9.94,0,0,1-2.52.25Zm1.8-1.7h.81a7.21,7.21,0,0,0,1.82-.19,4.35,4.35,0,0,0,1.35-.66A3.94,3.94,0,0,0,450,60.84a4.44,4.44,0,0,0,.41-1.9,4.37,4.37,0,0,0-.8-2.59,3.64,3.64,0,0,0-1.58-1.29,6.4,6.4,0,0,0-2.42-.4h-.81ZM456.25,63a1.05,1.05,0,0,1,.76.32,1.09,1.09,0,0,1,0,1.52,1.05,1.05,0,0,1-.76.32,1,1,0,0,1-.76-.32,1.06,1.06,0,0,1-.32-.78,1,1,0,0,1,.32-.74A1.12,1.12,0,0,1,456.25,63Z"/><path id="_1" data-name="1" class="cls-4" d="M174.26,53V64.91h-1.8V53Zm3.35,11.94,2.51-12.84,4.1,9.28,4.24-9.28,2.26,12.84h-1.85l-1.14-7.21-3.54,7.77-3.44-7.78-1.28,7.22ZM196,60.06v4.85h-1.81V53h2a8.62,8.62,0,0,1,2.36.23,3.17,3.17,0,0,1,1.91,1.66,3.65,3.65,0,0,1,.4,1.65,3.36,3.36,0,0,1-1.05,2.54,4.16,4.16,0,0,1-3,1Zm0-1.67h.67a2.91,2.91,0,0,0,1.87-.48,1.75,1.75,0,0,0,.61-1.42,1.64,1.64,0,0,0-.67-1.43,3.26,3.26,0,0,0-1.89-.43H196Zm14.24-3.73h-4.79v2.86h4.64v1.7h-4.64v4h4.79v1.7h-6.6V53h6.6Zm7.3,5.16,3.7,5.09H219L215.58,60h-.32v4.89h-1.81V53h2.12a8.72,8.72,0,0,1,1.87.16,3.52,3.52,0,0,1,1.27.53,3.11,3.11,0,0,1,1.06,1.23,3.5,3.5,0,0,1,.37,1.59,3.34,3.34,0,0,1-.73,2.16,3.18,3.18,0,0,1-1.91,1.18Zm-2.24-1.38h.57a3.07,3.07,0,0,0,1.8-.43,1.72,1.72,0,0,0,.75-1.52,1.59,1.59,0,0,0-.7-1.41,3.08,3.08,0,0,0-1.78-.42h-.64ZM225.69,53V64.91h-1.81V53Zm10.77,9h-5.11L230,64.91h-1.94L234,52.21l5.69,12.7h-2Zm-.73-1.69L234,56.25l-1.85,4.06ZM243.88,53V63.21h3.52v1.7h-5.32V53Zm19.42.65v2.13a5.84,5.84,0,0,0-1.42-.94,4.64,4.64,0,0,0-1.8-.37,4.15,4.15,0,0,0-2.26.64,4.21,4.21,0,0,0-1.65,1.84A4.65,4.65,0,0,0,255.7,59a4.37,4.37,0,0,0,4.38,4.46,4.25,4.25,0,0,0,1.62-.31,6.79,6.79,0,0,0,1.6-1.05v2.17a6.43,6.43,0,0,1-3.24.89,6.11,6.11,0,0,1-3-.76,6.16,6.16,0,0,1-3.2-5.38,6.29,6.29,0,0,1,.73-2.92,6.19,6.19,0,0,1,2.39-2.5,6.26,6.26,0,0,1,3.19-.84A6,6,0,0,1,263.3,53.62Zm8.76-.88A6.27,6.27,0,0,1,278.27,59a6.08,6.08,0,0,1-.83,3.08,6.22,6.22,0,0,1-2.25,2.25,6.31,6.31,0,0,1-3.22.86,6.2,6.2,0,0,1-3-.77,6,6,0,0,1-2.54-2.54,6.31,6.31,0,0,1-.68-2.94,5.87,5.87,0,0,1,1.91-4.38A6.22,6.22,0,0,1,272.06,52.74Zm0,1.7a4.2,4.2,0,0,0-3.4,1.57,4.47,4.47,0,0,0-1,2.9,4.31,4.31,0,0,0,1.33,3.26A4.26,4.26,0,0,0,272,63.44a4.46,4.46,0,0,0,2.31-.63,4.3,4.3,0,0,0,1.64-1.72,4.61,4.61,0,0,0,.52-2.15,4.52,4.52,0,0,0-1.27-3.21A4.27,4.27,0,0,0,272,54.44Zm9,10.47,2.51-12.84,4.1,9.28,4.24-9.28,2.26,12.84h-1.85l-1.14-7.21-3.54,7.77-3.44-7.78-1.28,7.22Zm18.34-4.85v4.85h-1.8V53h2a8.62,8.62,0,0,1,2.36.23,3.2,3.2,0,0,1,1.91,1.66,3.64,3.64,0,0,1,.39,1.65,3.35,3.35,0,0,1-1,2.54,4.16,4.16,0,0,1-3,1Zm0-1.67H300a2.91,2.91,0,0,0,1.87-.48,1.75,1.75,0,0,0,.61-1.42,1.64,1.64,0,0,0-.67-1.43,3.26,3.26,0,0,0-1.89-.43h-.6ZM311,59.82l3.7,5.09h-2.2L309.13,60h-.33v4.89H307V53h2.11a8.66,8.66,0,0,1,1.87.16,3.57,3.57,0,0,1,1.28.53,3.19,3.19,0,0,1,1.06,1.23,3.64,3.64,0,0,1,.37,1.59,3.4,3.4,0,0,1-.73,2.16A3.18,3.18,0,0,1,311,59.82Zm-2.24-1.38h.58a3.05,3.05,0,0,0,1.79-.43,1.71,1.71,0,0,0,.76-1.52,1.62,1.62,0,0,0-.7-1.41,3.11,3.11,0,0,0-1.79-.42h-.64v3.78ZM324,54.66h-4.8v2.86h4.65v1.7h-4.65v4H324v1.7h-6.6V53H324Zm10,.09-1.46.86a3.65,3.65,0,0,0-.57-.75,1.73,1.73,0,0,0-1.21-.42,1.86,1.86,0,0,0-1.28.44,1.39,1.39,0,0,0-.47,1,1.16,1.16,0,0,0,.57,1,2.45,2.45,0,0,0,.5.3c.16.08.64.28,1.42.6a5,5,0,0,1,2.14,1.45,3.32,3.32,0,0,1,.66,2.06,3.68,3.68,0,0,1-1.21,2.84,3.73,3.73,0,0,1-2.63,1,3.6,3.6,0,0,1-3.12-1.6,4.37,4.37,0,0,1-.69-1.93l1.82-.4a3.74,3.74,0,0,0,.34,1.31,1.74,1.74,0,0,0,.7.67,2.14,2.14,0,0,0,1,.25,1.88,1.88,0,0,0,1.48-.65,2,2,0,0,0,.48-1.35,1.76,1.76,0,0,0-.83-1.56,4.79,4.79,0,0,0-.55-.32l-1.48-.63c-1.63-.69-2.45-1.7-2.45-3a2.84,2.84,0,0,1,1.37-2.5,3.91,3.91,0,0,1,2.22-.66,3.44,3.44,0,0,1,1.85.48A4.25,4.25,0,0,1,334,54.75Zm10.12,0-1.46.86a3.05,3.05,0,0,0-.57-.75,1.7,1.7,0,0,0-1.21-.42,1.85,1.85,0,0,0-1.27.44,1.35,1.35,0,0,0-.47,1,1.15,1.15,0,0,0,.56,1,2.8,2.8,0,0,0,.51.3c.16.08.63.28,1.42.6a4.85,4.85,0,0,1,2.13,1.45,3.26,3.26,0,0,1,.67,2.06,3.75,3.75,0,0,1-3.84,3.82,3.57,3.57,0,0,1-3.12-1.6,4.5,4.5,0,0,1-.7-1.93l1.82-.4a4,4,0,0,0,.34,1.31,1.77,1.77,0,0,0,.71.67,2.08,2.08,0,0,0,1,.25,1.85,1.85,0,0,0,1.47-.65,2,2,0,0,0,.49-1.35,1.78,1.78,0,0,0-.83-1.56,4.79,4.79,0,0,0-.55-.32l-1.48-.63c-1.63-.69-2.45-1.7-2.45-3a2.83,2.83,0,0,1,1.36-2.5,4,4,0,0,1,2.22-.66,3.42,3.42,0,0,1,1.85.48,4.16,4.16,0,0,1,1.38,1.53Zm9-2A6.25,6.25,0,0,1,359.42,59a6.08,6.08,0,0,1-.83,3.08,6.22,6.22,0,0,1-2.25,2.25,6.29,6.29,0,0,1-3.22.86,6.14,6.14,0,0,1-3-.77,6.06,6.06,0,0,1-2.55-2.54,6.3,6.3,0,0,1-.67-2.94,5.83,5.83,0,0,1,1.91-4.38A6.18,6.18,0,0,1,353.21,52.74Zm0,1.7A4.16,4.16,0,0,0,349.8,56a4.41,4.41,0,0,0-1,2.9,4.31,4.31,0,0,0,1.33,3.26,4.24,4.24,0,0,0,3.05,1.27,4.48,4.48,0,0,0,3.95-2.35,4.61,4.61,0,0,0,.51-2.15,4.48,4.48,0,0,0-1.27-3.21,4.26,4.26,0,0,0-3.14-1.29Zm13.43,5.38,3.7,5.09h-2.2L364.71,60h-.33v4.89h-1.8V53h2.11a8.66,8.66,0,0,1,1.87.16,3.65,3.65,0,0,1,1.28.53,3.19,3.19,0,0,1,1.06,1.23,3.64,3.64,0,0,1,.37,1.59,3.4,3.4,0,0,1-.73,2.16,3.18,3.18,0,0,1-1.92,1.18Zm-2.24-1.38H365a3.05,3.05,0,0,0,1.79-.43,1.71,1.71,0,0,0,.76-1.52,1.62,1.62,0,0,0-.7-1.41,3.11,3.11,0,0,0-1.79-.42h-.64Zm15.38-3.69-1.46.86a3.05,3.05,0,0,0-.57-.75,1.69,1.69,0,0,0-1.2-.42,1.86,1.86,0,0,0-1.28.44,1.35,1.35,0,0,0-.47,1,1.15,1.15,0,0,0,.56,1,2.8,2.8,0,0,0,.51.3c.16.08.63.28,1.42.6a4.85,4.85,0,0,1,2.13,1.45,3.26,3.26,0,0,1,.67,2.06,3.73,3.73,0,0,1-3.84,3.82,3.57,3.57,0,0,1-3.12-1.6,4.5,4.5,0,0,1-.7-1.93l1.83-.4a3.53,3.53,0,0,0,.34,1.31,1.68,1.68,0,0,0,.7.67,2.08,2.08,0,0,0,1,.25,1.85,1.85,0,0,0,1.47-.65,2,2,0,0,0,.49-1.35,1.78,1.78,0,0,0-.83-1.56,4.79,4.79,0,0,0-.55-.32l-1.48-.63c-1.63-.69-2.45-1.7-2.45-3a2.83,2.83,0,0,1,1.36-2.5,4,4,0,0,1,2.23-.66,3.47,3.47,0,0,1,1.85.48,4.23,4.23,0,0,1,1.37,1.53Zm9.66,5.31v4.85h-1.81V53h2a8.62,8.62,0,0,1,2.36.23,3.17,3.17,0,0,1,1.91,1.66,3.65,3.65,0,0,1,.4,1.65,3.36,3.36,0,0,1-1.05,2.54,4.16,4.16,0,0,1-3,1Zm0-1.67h.67a2.91,2.91,0,0,0,1.87-.48,1.75,1.75,0,0,0,.61-1.42,1.64,1.64,0,0,0-.67-1.43,3.26,3.26,0,0,0-1.89-.43h-.59ZM397.66,53l3.3,8.27L404.31,53h2l-5.35,12.84L395.69,53Zm15,1.69V64.91h-1.81V54.66h-2.74V53h7.28v1.69ZM418.24,63a1.08,1.08,0,1,1-.76,1.84,1.1,1.1,0,0,1-.32-.78,1,1,0,0,1,.32-.74A1.12,1.12,0,0,1,418.24,63Zm10.88-10V63.21h3.51v1.7h-5.32V53Zm8.65,1.69V64.91H436V54.66h-2.74V53h7.28v1.69ZM443,64.91V53h2.51a9.07,9.07,0,0,1,3,.41,5.44,5.44,0,0,1,3,2.54,6.1,6.1,0,0,1,.73,3,5.62,5.62,0,0,1-2.38,4.83,5.55,5.55,0,0,1-1.85.9,9.94,9.94,0,0,1-2.52.25Zm1.8-1.7h.81a7.21,7.21,0,0,0,1.82-.19,4.35,4.35,0,0,0,1.35-.66A3.94,3.94,0,0,0,450,60.84a4.44,4.44,0,0,0,.41-1.9,4.37,4.37,0,0,0-.8-2.59,3.64,3.64,0,0,0-1.58-1.29,6.4,6.4,0,0,0-2.42-.4h-.81ZM456.25,63a1.05,1.05,0,0,1,.76.32,1.09,1.09,0,0,1,0,1.52,1.05,1.05,0,0,1-.76.32,1,1,0,0,1-.76-.32,1.06,1.06,0,0,1-.32-.78,1,1,0,0,1,.32-.74A1.12,1.12,0,0,1,456.25,63Z"/><path class="cls-5" d="M78,9v6a35.29,35.29,0,0,0-4.44,1l-2.62-5.49-3.39,1,1.3,6a28.56,28.56,0,0,0-4.18,1.83L61,14.75l-3.13,2.08,2.61,5.23c-1.31,1.05-2.35,1.83-3.65,2.88l-4.71-3.66-2.61,2.61,3.92,4.44a11.44,11.44,0,0,1-1.57,1.83c-.52.52-.78,1.31-1.31,1.83l-5.48-2.62L43,32.51l5,3.66a28.13,28.13,0,0,0-2.09,3.92l-6-1.31-1,3.4,5.48,2.61a27.43,27.43,0,0,0-1,4.44H37l-.26,3.66,6,1.3a12.33,12.33,0,0,0,0,4.45l-6,1.3L37,63.6h6.27c.26,1.57.52,2.87.78,4.44l-5.22,2.62,1,3.39,6-1.31a26,26,0,0,0,1.83,3.92L43,80.58l2.09,2.88,5.48-2.62a34.36,34.36,0,0,0,2.88,3.66l-3.92,4.71,2.61,2.35,4.71-3.66a11,11,0,0,0,1.83,1.56,10.09,10.09,0,0,0,1.82,1.31l-2.61,5.49L61,98.09l3.66-4.71c1.31.79,2.62,1.31,4.18,2.09l-1.3,5.75,3.39,1L73.56,97a26.23,26.23,0,0,0,4.44,1v6l3.65.26L83,98.61h4.71l1.3,5.75,3.66-.26v-6c1.3-.26,2.87-.79,4.44-1l2.61,5.49,3.4-1.31-1.31-5.75A29.63,29.63,0,0,0,106,93.38l3.66,4.71,3.14-1.83-2.62-5.49a35.26,35.26,0,0,0,3.66-2.87l4.71,3.92,2.61-2.61-3.92-4.71,1.56-1.57a12.26,12.26,0,0,1,1.31-1.83l5.49,2.36,2.09-2.88-5-3.66c.78-1.56,1.57-2.87,2.09-4.18l6,1.31,1-3.39L126.59,68c.27-1.3.53-2.87.78-4.44h6.28l.26-3.4-5.75-1.3V54.19h0l5.75-1.3-.26-3.66h-6.28a22.81,22.81,0,0,0-1-4.18l5.49-2.61-1-3.4-6,1.31a20.07,20.07,0,0,0-1.82-4.18l4.7-3.66-2.09-3.14L120.06,32a18.08,18.08,0,0,0-2.87-3.4l3.92-4.7-2.61-2.61-4.71,3.66A4.55,4.55,0,0,0,112,23.63a4.65,4.65,0,0,0-1.83-1.31l2.62-5.49-3.14-2.08L106,19.45c-1.3-.53-2.61-1.31-4.18-1.83l1.31-5.75-3.4-1.31-2.61,5.49a22.22,22.22,0,0,0-4.44-1V9L89,8.47l-1.3,6a14.32,14.32,0,0,0-4.71,0l-1.31-6L78,9Zm32.66,67.4a32.86,32.86,0,0,1-45.46,5A31.48,31.48,0,0,1,60,36.69a32.6,32.6,0,0,1,45.46-5,31.44,31.44,0,0,1,5.23,44.67Z"/><path class="cls-6" d="M81.65,8.47,78,9Zm29,67.93a32.86,32.86,0,0,1-45.46,5A31.48,31.48,0,0,1,60,36.69a32.6,32.6,0,0,1,45.46-5,31.44,31.44,0,0,1,5.23,44.67Z"/><circle class="cls-4" cx="85.32" cy="56.41" r="38.81"/><path class="cls-7" d="M85.32,20.87A35.55,35.55,0,1,1,49.77,56.41,35.54,35.54,0,0,1,85.32,20.87Z"/><g class="cls-8"><g id="_1933460233632" data-name=" 1933460233632"><polygon id="_1-2" data-name="1" class="cls-9" points="76.03 92.36 85.31 20.46 94.6 92.36 76.03 92.36"/></g></g><path class="cls-1" d="M85.32,20.87A35.55,35.55,0,1,1,49.77,56.41,35.54,35.54,0,0,1,85.32,20.87Z"/><path class="cls-9" d="M78,15V9c4.87-1.77,9.75-1.37,14.63,0v6A42.47,42.47,0,0,0,78,15Z"/><circle class="cls-10" cx="85.31" cy="10.21" r="7.31"/><g id="_1933460224800" data-name=" 1933460224800"><path class="cls-11" d="M151.05,98.58l1.32-6.76,2.16,4.89,2.23-4.89L158,98.58h-1l-.6-3.79-1.87,4.09-1.81-4.09L152,98.58Zm11.22-4h.92v4h-.92v-.42a2,2,0,0,1-.59.42,1.54,1.54,0,0,1-.63.12,1.75,1.75,0,0,1-1.42-.67,2.21,2.21,0,0,1-.47-1.44,2.09,2.09,0,0,1,.59-1.55,1.74,1.74,0,0,1,1.28-.53,1.45,1.45,0,0,1,.65.13,1.84,1.84,0,0,1,.59.44v-.46Zm-1.07.71a1,1,0,0,0-.81.39,1.33,1.33,0,0,0-.3.87,1.37,1.37,0,0,0,.38,1,1,1,0,0,0,.72.29,1,1,0,0,0,.87-.41,1.34,1.34,0,0,0,.26-.86,1.26,1.26,0,0,0-.35-1A1.06,1.06,0,0,0,161.2,95.33Zm3.38-.71h.91V95a1.91,1.91,0,0,1,.51-.37,1.44,1.44,0,0,1,.58-.1,1.65,1.65,0,0,1,.68.14,1.13,1.13,0,0,1,.48.4,1.92,1.92,0,0,1,.25,1.1v2.43h-.91V96.36a1.57,1.57,0,0,0-.12-.74.69.69,0,0,0-.63-.29.71.71,0,0,0-.65.3,2.15,2.15,0,0,0-.19,1v1.91h-.91v-4Zm5.72,0v2.27a1.39,1.39,0,0,0,.11.63.69.69,0,0,0,.67.36.72.72,0,0,0,.59-.24,1.26,1.26,0,0,0,.18-.75V94.62h.92v2.29a2.58,2.58,0,0,1-.09.76,1.42,1.42,0,0,1-.33.53,1.65,1.65,0,0,1-1.27.5,1.67,1.67,0,0,1-1.28-.5,1.4,1.4,0,0,1-.32-.53,2.25,2.25,0,0,1-.1-.76V94.62Zm4.81.85v3.11h-.92V95.47h-.33v-.85h.33V93.09a1.72,1.72,0,0,1,.26-1.06,1.16,1.16,0,0,1,.45-.31,1.52,1.52,0,0,1,.59-.12,1.71,1.71,0,0,1,.62.14v.94a1.6,1.6,0,0,0-.59-.2.35.35,0,0,0-.33.17,1.92,1.92,0,0,0-.08.66v1.31h1v.85Zm4.79-.85h.91v4h-.91v-.42a2.17,2.17,0,0,1-.59.42,1.54,1.54,0,0,1-.63.12,1.75,1.75,0,0,1-1.42-.67,2.21,2.21,0,0,1-.47-1.44,2,2,0,0,1,.59-1.55,1.74,1.74,0,0,1,1.27-.53,1.47,1.47,0,0,1,.66.13,1.84,1.84,0,0,1,.59.44v-.46Zm-1.07.71a1,1,0,0,0-.81.39,1.33,1.33,0,0,0-.3.87,1.4,1.4,0,0,0,.37,1,1,1,0,0,0,.73.29,1.06,1.06,0,0,0,.87-.41,1.4,1.4,0,0,0,.26-.86,1.26,1.26,0,0,0-.35-1,1.06,1.06,0,0,0-.77-.32Zm6.46-.54V96a2.31,2.31,0,0,0-.56-.52,1.11,1.11,0,0,0-.58-.15,1.13,1.13,0,0,0-.89.4,1.27,1.27,0,0,0-.31.87,1.29,1.29,0,0,0,.34.92,1.06,1.06,0,0,0,.84.36,1.16,1.16,0,0,0,.58-.14,2.49,2.49,0,0,0,.58-.54v1.21a2.31,2.31,0,0,1-1.12.29A2.08,2.08,0,0,1,182,96.62a2.13,2.13,0,0,1,.28-1,2.05,2.05,0,0,1,.73-.76,2.17,2.17,0,0,1,1.16-.31,2.29,2.29,0,0,1,1.11.28Zm2.07.68v3.11h-.92V95.47h-.39v-.85h.39V93.17h.92v1.45h.71v.85Zm2.48-.85v2.27a1.25,1.25,0,0,0,.12.63.69.69,0,0,0,.66.36.71.71,0,0,0,.59-.24,1.18,1.18,0,0,0,.19-.75V94.62h.91v2.29a2.58,2.58,0,0,1-.09.76,1.4,1.4,0,0,1-.32.53,1.67,1.67,0,0,1-1.28.5,1.65,1.65,0,0,1-1.27-.5,1.31,1.31,0,0,1-.33-.53,2.58,2.58,0,0,1-.09-.76V94.62Zm3.87,0h.91V95a1.88,1.88,0,0,1,.45-.37,1.12,1.12,0,0,1,.47-.1,1.49,1.49,0,0,1,.76.24l-.42.84a.87.87,0,0,0-.51-.19.61.61,0,0,0-.56.28,1.5,1.5,0,0,0-.19.86v2h-.91v-4Zm6.91,2.2h-2.84a1.21,1.21,0,0,0,.14.51.92.92,0,0,0,.89.55,1,1,0,0,0,.57-.16,2.25,2.25,0,0,0,.5-.61l.77.43a2.72,2.72,0,0,1-.52.68,2,2,0,0,1-1.35.48,1.88,1.88,0,0,1-1.53-.69,2.14,2.14,0,0,1-.43-1.41,2.56,2.56,0,0,1,.15-.89,1.73,1.73,0,0,1,.43-.69,1.83,1.83,0,0,1,1.33-.51,1.88,1.88,0,0,1,1.19.38,2,2,0,0,1,.7,1.71Zm-.94-.75a1.15,1.15,0,0,0-.18-.4.9.9,0,0,0-.75-.34.93.93,0,0,0-.58.2,1,1,0,0,0-.33.54Zm2.18-1.45h.91V95a1.88,1.88,0,0,1,.45-.37,1.14,1.14,0,0,1,.48-.1,1.46,1.46,0,0,1,.75.24l-.42.84a.87.87,0,0,0-.5-.19.62.62,0,0,0-.57.28,1.59,1.59,0,0,0-.19.86v2h-.91Zm5.68.67-.76.41c-.12-.25-.27-.37-.45-.37a.29.29,0,0,0-.21.09.25.25,0,0,0-.09.2.3.3,0,0,0,.1.21,2,2,0,0,0,.43.24,4.76,4.76,0,0,1,.75.4,1,1,0,0,1,.48.9,1.25,1.25,0,0,1-.42.95,1.37,1.37,0,0,1-1,.38,1.44,1.44,0,0,1-1.42-1l.78-.36a1.39,1.39,0,0,0,.3.41.56.56,0,0,0,.35.11.49.49,0,0,0,.34-.12.39.39,0,0,0,.12-.3.35.35,0,0,0-.13-.3,5.77,5.77,0,0,0-.78-.43,1.74,1.74,0,0,1-.61-.44,1,1,0,0,1-.16-.59,1.08,1.08,0,0,1,.38-.87,1.22,1.22,0,0,1,.85-.32,1.13,1.13,0,0,1,.67.19,1.45,1.45,0,0,1,.47.59Zm6.31-.21L215,96.46c.32-.36.55-.64.7-.82l.62.63a10.94,10.94,0,0,1-.74.88l1.16,1.43h-1.18l-.62-.77a3.52,3.52,0,0,1-.89.68,2.14,2.14,0,0,1-.91.22,1.92,1.92,0,0,1-1.52-.65,1.78,1.78,0,0,1,.26-2.64l.5-.36.17-.12a2,2,0,0,1-.62-1.31,1.4,1.4,0,0,1,.43-1,1.43,1.43,0,0,1,1.07-.38,1.46,1.46,0,0,1,1.09.4,1.29,1.29,0,0,1,.41,1,1.17,1.17,0,0,1-.23.72A3.76,3.76,0,0,1,213.85,95.08Zm-.75.54-.55.4a1.1,1.1,0,0,0-.51.8,1,1,0,0,0,.11.42,1.4,1.4,0,0,0,.3.38,1,1,0,0,0,.62.23,1.21,1.21,0,0,0,.59-.17,3.2,3.2,0,0,0,.68-.55Zm.2-1.2a4.12,4.12,0,0,0,.6-.5.6.6,0,0,0,.12-.38.53.53,0,0,0-.17-.4.63.63,0,0,0-.44-.15.65.65,0,0,0-.44.15.54.54,0,0,0-.17.39.84.84,0,0,0,.22.54Zm10.32-1.19-.77.46a1.64,1.64,0,0,0-.3-.4.91.91,0,0,0-.63-.22.93.93,0,0,0-.67.24.69.69,0,0,0-.25.54.63.63,0,0,0,.3.53,1.43,1.43,0,0,0,.26.15l.75.32a2.47,2.47,0,0,1,1.12.76,1.72,1.72,0,0,1,.35,1.09,2,2,0,0,1-2,2,1.89,1.89,0,0,1-1.64-.83,2.46,2.46,0,0,1-.36-1l1-.21a2,2,0,0,0,.18.69,1,1,0,0,0,.37.35,1.13,1.13,0,0,0,.54.13,1,1,0,0,0,.77-.34,1,1,0,0,0,.26-.71.93.93,0,0,0-.43-.82,2.43,2.43,0,0,0-.3-.17l-.77-.34Q220,94.89,220,93.84a1.49,1.49,0,0,1,.71-1.31,2,2,0,0,1,1.17-.35,1.81,1.81,0,0,1,1,.25,2.27,2.27,0,0,1,.72.8Zm2.28,1.39v2.27a1.25,1.25,0,0,0,.12.63.69.69,0,0,0,.66.36.71.71,0,0,0,.59-.24,1.18,1.18,0,0,0,.19-.75V94.62h.91v2.29a2.58,2.58,0,0,1-.09.76,1.4,1.4,0,0,1-.32.53,1.67,1.67,0,0,1-1.28.5,1.65,1.65,0,0,1-1.27-.5,1.31,1.31,0,0,1-.33-.53,2.58,2.58,0,0,1-.09-.76V94.62Zm4.78,6.13h-.91V94.62h.91v.43a1.69,1.69,0,0,1,1.23-.54,1.74,1.74,0,0,1,1.41.67,2.15,2.15,0,0,1,.47,1.44,2.09,2.09,0,0,1-.59,1.55,1.73,1.73,0,0,1-2.52,0v2.61Zm1.08-5.42a1.07,1.07,0,0,0-.87.41,1.38,1.38,0,0,0-.26.86,1.26,1.26,0,0,0,.35,1,1.06,1.06,0,0,0,.77.32,1,1,0,0,0,.82-.38,1.4,1.4,0,0,0,.29-.87,1.38,1.38,0,0,0-.37-1,1.07,1.07,0,0,0-.73-.29Zm4.15,5.42H235V94.62h.91v.43a1.75,1.75,0,0,1,2.64.13,2.16,2.16,0,0,1,.48,1.44,2.06,2.06,0,0,1-.6,1.55,1.73,1.73,0,0,1-2.52,0ZM237,95.33a1.08,1.08,0,0,0-.88.41,1.38,1.38,0,0,0-.26.86,1.3,1.3,0,0,0,.35,1,1.06,1.06,0,0,0,.78.32,1,1,0,0,0,.81-.38,1.4,1.4,0,0,0,.29-.87,1.38,1.38,0,0,0-.37-1,1.07,1.07,0,0,0-.72-.29Zm4.15-3.62v6.87h-.92V91.71Zm2.31,2.91v4h-.92v-4ZM243,92.38a.58.58,0,0,1,.42.18.54.54,0,0,1,.18.42.59.59,0,0,1-1,.42.58.58,0,0,1-.18-.43.54.54,0,0,1,.18-.41A.64.64,0,0,1,243,92.38Zm5.46,4.44h-2.84a1.37,1.37,0,0,0,.14.51.92.92,0,0,0,.9.55,1.06,1.06,0,0,0,.57-.16,2.45,2.45,0,0,0,.5-.61l.77.43a2.72,2.72,0,0,1-.53.68,2,2,0,0,1-1.34.48A1.86,1.86,0,0,1,245.1,98a2.14,2.14,0,0,1-.44-1.41,2.35,2.35,0,0,1,.16-.89,1.74,1.74,0,0,1,1.75-1.2,1.91,1.91,0,0,1,1.2.38,2,2,0,0,1,.7,1.71s0,.11,0,.22Zm-.94-.75a1,1,0,0,0-.18-.4,1,1,0,0,0-1.32-.14,1,1,0,0,0-.34.54Zm2.18-1.45h.92V95a1.88,1.88,0,0,1,.45-.37,1.12,1.12,0,0,1,.47-.1,1.43,1.43,0,0,1,.75.24l-.42.84a.83.83,0,0,0-.5-.19.62.62,0,0,0-.57.28,1.6,1.6,0,0,0-.18.86v2h-.92v-4Zm5.68.67-.76.41c-.12-.25-.26-.37-.44-.37a.31.31,0,0,0-.22.09.25.25,0,0,0-.09.2.28.28,0,0,0,.11.21,2.15,2.15,0,0,0,.42.24,4.52,4.52,0,0,1,.76.4,1.05,1.05,0,0,1,.47.9,1.25,1.25,0,0,1-.42.95,1.37,1.37,0,0,1-1,.38,1.42,1.42,0,0,1-1.41-1l.77-.36a1.58,1.58,0,0,0,.31.41.53.53,0,0,0,.34.11.47.47,0,0,0,.34-.12.37.37,0,0,0,.13-.3.36.36,0,0,0-.14-.3,5.77,5.77,0,0,0-.78-.43,1.6,1.6,0,0,1-.6-.44,1,1,0,0,1-.17-.59,1.08,1.08,0,0,1,.38-.87,1.24,1.24,0,0,1,.86-.32,1.09,1.09,0,0,1,.66.19,1.37,1.37,0,0,1,.47.59Zm5.6-.78a2,2,0,0,1,1.6.71,2.08,2.08,0,0,1,.52,1.38,2,2,0,0,1-.68,1.55,2,2,0,0,1-1.46.55,2,2,0,0,1-1.58-.72,2,2,0,0,1-.51-1.41,2,2,0,0,1,.67-1.51A2.06,2.06,0,0,1,261,94.51Zm0,.82a1.1,1.1,0,0,0-.93.44,1.38,1.38,0,0,0-.25.82,1.31,1.31,0,0,0,.35,1,1.13,1.13,0,0,0,.83.32,1.1,1.1,0,0,0,.92-.42,1.37,1.37,0,0,0,.26-.85,1.32,1.32,0,0,0-.35-1,1.18,1.18,0,0,0-.83-.32Zm4.26.14v3.11h-.91V95.47H264v-.85h.33V93.09a1.72,1.72,0,0,1,.26-1.06,1.12,1.12,0,0,1,.44-.31,1.53,1.53,0,0,1,.6-.12,1.66,1.66,0,0,1,.61.14v.94a1.51,1.51,0,0,0-.58-.2.34.34,0,0,0-.33.17,1.65,1.65,0,0,0-.09.66v1.31h1v.85Zm8.95-2.83v1.12a3.15,3.15,0,0,0-.75-.49,2.45,2.45,0,0,0-.95-.2,2.17,2.17,0,0,0-1.19.34,2.22,2.22,0,0,0-.87,1,2.47,2.47,0,0,0-.24,1.08,2.24,2.24,0,0,0,.76,1.76,2.28,2.28,0,0,0,1.54.59,2.15,2.15,0,0,0,.85-.16,3.77,3.77,0,0,0,.85-.55v1.14a3.38,3.38,0,0,1-1.71.46,3.26,3.26,0,0,1-1.57-.39,3.25,3.25,0,0,1-1.68-2.84,3.32,3.32,0,0,1,1.64-2.85,3.34,3.34,0,0,1,1.68-.44,3.18,3.18,0,0,1,1.64.46Zm3.18,1.87a2,2,0,0,1,1.6.71,2.07,2.07,0,0,1,.51,1.38,2,2,0,0,1-.67,1.55,2,2,0,0,1-1.46.55,2,2,0,0,1-1.59-.72,2.07,2.07,0,0,1-.51-1.41,2,2,0,0,1,.68-1.51,2,2,0,0,1,1.44-.55Zm0,.82a1.1,1.1,0,0,0-.93.44,1.31,1.31,0,0,0-.25.82,1.27,1.27,0,0,0,.35,1,1.13,1.13,0,0,0,.83.32,1.11,1.11,0,0,0,.92-.42,1.37,1.37,0,0,0,.26-.85,1.32,1.32,0,0,0-.35-1,1.2,1.2,0,0,0-.83-.32Zm3.32-.71h.91V95a1.66,1.66,0,0,1,.45-.37,1.1,1.1,0,0,1,.51-.1,1.2,1.2,0,0,1,1.05.58,1.47,1.47,0,0,1,2.05-.29,1.65,1.65,0,0,1,.46,1.33v2.45h-.91v-2.2a1.75,1.75,0,0,0-.14-.81.5.5,0,0,0-.47-.24.6.6,0,0,0-.55.29,1.75,1.75,0,0,0-.18.91v2H283V96.39a2,2,0,0,0-.1-.7.51.51,0,0,0-.52-.36.78.78,0,0,0-.36.1.66.66,0,0,0-.24.26,2,2,0,0,0-.14.84v2h-.91v-4Zm7.83,6.13h-.91V94.62h.91v.43a1.75,1.75,0,0,1,2.64.13,2.16,2.16,0,0,1,.48,1.44,2.06,2.06,0,0,1-.6,1.55,1.73,1.73,0,0,1-2.52,0Zm1.09-5.42a1.08,1.08,0,0,0-.88.41,1.38,1.38,0,0,0-.26.86,1.3,1.3,0,0,0,.35,1,1.06,1.06,0,0,0,.78.32,1,1,0,0,0,.81-.38,1.4,1.4,0,0,0,.29-.87,1.38,1.38,0,0,0-.37-1A1.07,1.07,0,0,0,289.61,95.33Zm3.23-.71h.92V95a1.69,1.69,0,0,1,.44-.37,1.17,1.17,0,0,1,.48-.1,1.43,1.43,0,0,1,.75.24l-.42.84a.85.85,0,0,0-.5-.19.62.62,0,0,0-.57.28,1.6,1.6,0,0,0-.18.86v2h-.92Zm6.91,2.2h-2.84a1.21,1.21,0,0,0,.14.51.92.92,0,0,0,.9.55,1,1,0,0,0,.56-.16,2.08,2.08,0,0,0,.5-.61l.78.43a2.72,2.72,0,0,1-.53.68,2,2,0,0,1-1.35.48,1.88,1.88,0,0,1-1.53-.69A2.2,2.2,0,0,1,296,96.6a2.56,2.56,0,0,1,.15-.89,2,2,0,0,1,.43-.69,1.83,1.83,0,0,1,1.33-.51,1.93,1.93,0,0,1,1.2.38,2,2,0,0,1,.69,1.71v.22Zm-.94-.75a1,1,0,0,0-.18-.4.89.89,0,0,0-.74-.34.94.94,0,0,0-.59.2,1,1,0,0,0-.33.54Zm4.48-.78-.76.41c-.11-.25-.26-.37-.44-.37a.29.29,0,0,0-.21.09.25.25,0,0,0-.09.2.26.26,0,0,0,.1.21,2,2,0,0,0,.43.24,4.76,4.76,0,0,1,.75.4,1,1,0,0,1,.48.9,1.25,1.25,0,0,1-.42.95,1.37,1.37,0,0,1-1,.38,1.43,1.43,0,0,1-1.41-1l.78-.36a1.39,1.39,0,0,0,.3.41.54.54,0,0,0,.35.11.45.45,0,0,0,.33-.12.37.37,0,0,0,.13-.3.35.35,0,0,0-.13-.3,5.5,5.5,0,0,0-.79-.43,1.6,1.6,0,0,1-.6-.44,1,1,0,0,1-.16-.59,1.07,1.07,0,0,1,.37-.87,1.24,1.24,0,0,1,.86-.32,1.15,1.15,0,0,1,.67.19,1.43,1.43,0,0,1,.46.59Zm3.62,0-.76.41c-.12-.25-.26-.37-.44-.37a.29.29,0,0,0-.21.09.25.25,0,0,0-.09.2.26.26,0,0,0,.1.21,2,2,0,0,0,.43.24,4.76,4.76,0,0,1,.75.4,1,1,0,0,1,.47.9,1.25,1.25,0,0,1-.42.95,1.35,1.35,0,0,1-1,.38,1.43,1.43,0,0,1-1.41-1l.78-.36a1.39,1.39,0,0,0,.3.41.53.53,0,0,0,.34.11.45.45,0,0,0,.34-.12.37.37,0,0,0,.13-.3.35.35,0,0,0-.13-.3,5.5,5.5,0,0,0-.79-.43,1.6,1.6,0,0,1-.6-.44,1,1,0,0,1-.17-.59,1.08,1.08,0,0,1,.38-.87,1.24,1.24,0,0,1,.86-.32,1.09,1.09,0,0,1,.66.19,1.37,1.37,0,0,1,.47.59Zm3.24-.78a2.1,2.1,0,0,1,1.45,3.64,2.06,2.06,0,0,1-1.47.55,2,2,0,0,1-1.58-.72,2.07,2.07,0,0,1-.51-1.41,2,2,0,0,1,.67-1.51A2.06,2.06,0,0,1,310.15,94.51Zm0,.82a1.08,1.08,0,0,0-.92.44,1.47,1.47,0,0,0,.09,1.79,1.16,1.16,0,0,0,.83.32,1.11,1.11,0,0,0,.93-.42,1.36,1.36,0,0,0,.25-.85,1.28,1.28,0,0,0-.35-1,1.18,1.18,0,0,0-.83-.32Zm3.32-.71h.92V95a1.88,1.88,0,0,1,.45-.37,1.12,1.12,0,0,1,.47-.1,1.43,1.43,0,0,1,.75.24l-.42.84a.83.83,0,0,0-.5-.19.62.62,0,0,0-.57.28,1.6,1.6,0,0,0-.18.86v2h-.92Zm8,1.28,1.95,2.68h-1.16L320.48,96h-.17v2.57h-.95V92.3h1.11a5.26,5.26,0,0,1,1,.08,2.11,2.11,0,0,1,.67.28,1.78,1.78,0,0,1,.56.65,1.92,1.92,0,0,1-.19,2,1.71,1.71,0,0,1-1,.61Zm-1.18-.72h.3a1.57,1.57,0,0,0,.95-.23.91.91,0,0,0,.39-.8.85.85,0,0,0-.36-.74,1.61,1.61,0,0,0-.94-.22h-.34Zm7.6,1.64h-2.84a1.37,1.37,0,0,0,.13.51.94.94,0,0,0,.9.55,1,1,0,0,0,.57-.16,2.25,2.25,0,0,0,.5-.61l.77.43a2.72,2.72,0,0,1-.52.68,2,2,0,0,1-1.35.48,1.88,1.88,0,0,1-1.53-.69,2.14,2.14,0,0,1-.43-1.41,2.56,2.56,0,0,1,.15-.89,1.83,1.83,0,0,1,.42-.69,1.85,1.85,0,0,1,1.34-.51,1.9,1.9,0,0,1,1.19.38,2,2,0,0,1,.7,1.71v.22Zm-.94-.75a1.15,1.15,0,0,0-.19-.4.86.86,0,0,0-.74-.34.91.91,0,0,0-.58.2,1,1,0,0,0-.33.54Z"/><path class="cls-11" d="M330.06,100.75h-.91V94.62h.91v.43a1.69,1.69,0,0,1,1.23-.54,1.74,1.74,0,0,1,1.41.67,2.15,2.15,0,0,1,.47,1.44,2.09,2.09,0,0,1-.59,1.55,1.73,1.73,0,0,1-2.52,0Zm1.08-5.42a1.07,1.07,0,0,0-.87.41,1.38,1.38,0,0,0-.26.86,1.26,1.26,0,0,0,.35,1,1.06,1.06,0,0,0,.77.32,1,1,0,0,0,.82-.38,1.4,1.4,0,0,0,.29-.87,1.38,1.38,0,0,0-.37-1A1.07,1.07,0,0,0,331.14,95.33Zm4.15-3.62v6.87h-.91V91.71Zm4.32,2.91h.92v4h-.92v-.42a2.14,2.14,0,0,1-.58.42,1.54,1.54,0,0,1-.63.12A1.73,1.73,0,0,1,337,98a2.16,2.16,0,0,1-.48-1.44,2.06,2.06,0,0,1,.6-1.55,1.72,1.72,0,0,1,1.27-.53,1.53,1.53,0,0,1,.66.13,1.82,1.82,0,0,1,.58.44v-.46Zm-1.07.71a1,1,0,0,0-.81.39,1.38,1.38,0,0,0-.29.87,1.36,1.36,0,0,0,.37,1,1,1,0,0,0,.72.29,1.08,1.08,0,0,0,.88-.41,1.4,1.4,0,0,0,.26-.86,1.3,1.3,0,0,0-.35-1,1.1,1.1,0,0,0-.78-.32Zm6.47-.54V96a2.32,2.32,0,0,0-.57-.52,1.06,1.06,0,0,0-.58-.15,1.11,1.11,0,0,0-.88.4,1.27,1.27,0,0,0-.31.87,1.33,1.33,0,0,0,.33.92,1.07,1.07,0,0,0,.85.36,1.18,1.18,0,0,0,.58-.14,3,3,0,0,0,.58-.54v1.21a2.34,2.34,0,0,1-1.12.29,2.06,2.06,0,0,1-1.61-.67,2.08,2.08,0,0,1-.27-2.45,2,2,0,0,1,.73-.76,2.14,2.14,0,0,1,1.16-.31A2.29,2.29,0,0,1,345,94.79Zm4.73,2H346.9a1.21,1.21,0,0,0,.14.51.92.92,0,0,0,.89.55,1,1,0,0,0,.57-.16,2.25,2.25,0,0,0,.5-.61l.77.43a2.72,2.72,0,0,1-.52.68,2,2,0,0,1-1.35.48,1.88,1.88,0,0,1-1.53-.69,2.14,2.14,0,0,1-.43-1.41,2.56,2.56,0,0,1,.15-.89,1.73,1.73,0,0,1,.43-.69,1.83,1.83,0,0,1,1.33-.51,1.88,1.88,0,0,1,1.19.38,2,2,0,0,1,.7,1.71v.22Zm-.94-.75a.88.88,0,0,0-.19-.4.86.86,0,0,0-.74-.34.93.93,0,0,0-.58.2,1,1,0,0,0-.33.54ZM351,94.62h.91V95a1.55,1.55,0,0,1,.46-.37,1,1,0,0,1,.5-.1,1.23,1.23,0,0,1,1.06.58,1.35,1.35,0,0,1,1.16-.58,1.37,1.37,0,0,1,.88.29,1.65,1.65,0,0,1,.47,1.33v2.45h-.92v-2.2a1.75,1.75,0,0,0-.14-.81.5.5,0,0,0-.47-.24.6.6,0,0,0-.55.29,1.75,1.75,0,0,0-.18.91v2h-.91V96.39a2,2,0,0,0-.1-.7.51.51,0,0,0-.52-.36.81.81,0,0,0-.36.1.66.66,0,0,0-.24.26,2,2,0,0,0-.14.84v2H351v-4Zm10.44,2.2h-2.85a1.59,1.59,0,0,0,.14.51.94.94,0,0,0,.9.55,1,1,0,0,0,.57-.16,2.25,2.25,0,0,0,.5-.61l.77.43a2.72,2.72,0,0,1-.53.68,2,2,0,0,1-1.34.48,1.88,1.88,0,0,1-1.53-.69,2.14,2.14,0,0,1-.43-1.41,2.56,2.56,0,0,1,.15-.89,1.83,1.83,0,0,1,.42-.69,1.85,1.85,0,0,1,1.34-.51,1.9,1.9,0,0,1,1.19.38,2,2,0,0,1,.7,1.71v.22Zm-.94-.75a1.15,1.15,0,0,0-.19-.4.88.88,0,0,0-.74-.34.91.91,0,0,0-.58.2,1,1,0,0,0-.34.54Zm2.18-1.45h.91V95a1.91,1.91,0,0,1,.51-.37,1.44,1.44,0,0,1,.58-.1,1.69,1.69,0,0,1,.68.14,1.13,1.13,0,0,1,.48.4,1.92,1.92,0,0,1,.25,1.1v2.43h-.91V96.36a1.57,1.57,0,0,0-.12-.74.69.69,0,0,0-.63-.29.71.71,0,0,0-.65.3,2,2,0,0,0-.19,1v1.91h-.91v-4Zm5.75.85v3.11h-.92V95.47h-.39v-.85h.39V93.17h.92v1.45h.71v.85Zm7.65-2.24-.77.46a1.64,1.64,0,0,0-.3-.4.91.91,0,0,0-.63-.22.93.93,0,0,0-.67.24.69.69,0,0,0-.25.54.63.63,0,0,0,.3.53,1.43,1.43,0,0,0,.26.15l.75.32a2.47,2.47,0,0,1,1.12.76,1.72,1.72,0,0,1,.35,1.09,2,2,0,0,1-2,2,1.89,1.89,0,0,1-1.64-.83,2.46,2.46,0,0,1-.36-1l.95-.21a2,2,0,0,0,.18.69,1,1,0,0,0,.37.35,1.13,1.13,0,0,0,.54.13,1,1,0,0,0,.77-.34,1,1,0,0,0,.26-.71.93.93,0,0,0-.43-.82,2.43,2.43,0,0,0-.3-.17l-.77-.34q-1.29-.54-1.29-1.59a1.49,1.49,0,0,1,.71-1.31,2,2,0,0,1,1.17-.35,1.81,1.81,0,0,1,1,.25,2.27,2.27,0,0,1,.72.8Zm2.28,7.52h-.91V94.62h.91v.43a1.69,1.69,0,0,1,1.23-.54,1.74,1.74,0,0,1,1.41.67,2.15,2.15,0,0,1,.47,1.44,2.09,2.09,0,0,1-.59,1.55,1.73,1.73,0,0,1-2.52,0Zm1.08-5.42a1.07,1.07,0,0,0-.87.41,1.38,1.38,0,0,0-.26.86,1.26,1.26,0,0,0,.35,1,1.06,1.06,0,0,0,.77.32,1,1,0,0,0,.82-.38,1.4,1.4,0,0,0,.29-.87,1.43,1.43,0,0,0-.37-1,1.07,1.07,0,0,0-.73-.29Zm6.16-.71h.92v4h-.92v-.42a2.14,2.14,0,0,1-.58.42,1.54,1.54,0,0,1-.63.12A1.73,1.73,0,0,1,383,98a2.16,2.16,0,0,1-.48-1.44,2.09,2.09,0,0,1,.59-1.55,1.76,1.76,0,0,1,1.28-.53,1.53,1.53,0,0,1,.66.13,1.93,1.93,0,0,1,.58.44v-.46Zm-1.07.71a1,1,0,0,0-.81.39,1.33,1.33,0,0,0-.29.87,1.36,1.36,0,0,0,.37,1,1,1,0,0,0,.72.29,1,1,0,0,0,.87-.41,1.34,1.34,0,0,0,.27-.86,1.3,1.3,0,0,0-.35-1A1.1,1.1,0,0,0,384.51,95.33Zm3.38-.71h.92V95a1.69,1.69,0,0,1,.44-.37,1.17,1.17,0,0,1,.48-.1,1.43,1.43,0,0,1,.75.24l-.42.84a.85.85,0,0,0-.5-.19.62.62,0,0,0-.57.28,1.6,1.6,0,0,0-.18.86v2h-.92v-4Zm6.91,2.2H392a1.21,1.21,0,0,0,.14.51.92.92,0,0,0,.9.55,1,1,0,0,0,.56-.16,2.08,2.08,0,0,0,.5-.61l.78.43a2.72,2.72,0,0,1-.53.68,2,2,0,0,1-1.35.48,1.88,1.88,0,0,1-1.53-.69A2.2,2.2,0,0,1,391,96.6a2.56,2.56,0,0,1,.15-.89,2,2,0,0,1,.43-.69,1.83,1.83,0,0,1,1.33-.51,1.93,1.93,0,0,1,1.2.38,2,2,0,0,1,.69,1.71v.22Zm-.94-.75a1,1,0,0,0-.18-.4.89.89,0,0,0-.74-.34.94.94,0,0,0-.59.2,1,1,0,0,0-.33.54Zm4.48-.78-.76.41c-.11-.25-.26-.37-.44-.37a.29.29,0,0,0-.21.09.25.25,0,0,0-.09.2.26.26,0,0,0,.1.21,2,2,0,0,0,.43.24,4.76,4.76,0,0,1,.75.4,1,1,0,0,1,.48.9,1.25,1.25,0,0,1-.42.95,1.37,1.37,0,0,1-1,.38,1.43,1.43,0,0,1-1.41-1l.78-.36a1.39,1.39,0,0,0,.3.41.54.54,0,0,0,.35.11.45.45,0,0,0,.33-.12.37.37,0,0,0,.13-.3.35.35,0,0,0-.13-.3,5.5,5.5,0,0,0-.79-.43,1.6,1.6,0,0,1-.6-.44,1,1,0,0,1-.16-.59,1.07,1.07,0,0,1,.37-.87,1.24,1.24,0,0,1,.86-.32,1.15,1.15,0,0,1,.67.19,1.43,1.43,0,0,1,.46.59Zm6.31-.21,1.14,1.38c.32-.36.55-.64.7-.82l.61.63a9.1,9.1,0,0,1-.74.88l1.17,1.43h-1.18l-.63-.77a3.48,3.48,0,0,1-.88.68,2.18,2.18,0,0,1-.92.22,1.9,1.9,0,0,1-1.51-.65,1.79,1.79,0,0,1-.47-1.21,1.77,1.77,0,0,1,.73-1.43,5.44,5.44,0,0,1,.5-.36l.17-.12a1.94,1.94,0,0,1-.62-1.31,1.4,1.4,0,0,1,.43-1,1.42,1.42,0,0,1,1.07-.38,1.46,1.46,0,0,1,1.09.4,1.32,1.32,0,0,1,.41,1,1.23,1.23,0,0,1-.23.72,3.85,3.85,0,0,1-.84.79Zm-.75.54c-.24.17-.42.3-.54.4a1.1,1.1,0,0,0-.51.8,1,1,0,0,0,.11.42,1.2,1.2,0,0,0,.29.38,1,1,0,0,0,.63.23,1.24,1.24,0,0,0,.59-.17,3.47,3.47,0,0,0,.68-.55l-1.25-1.51Zm.21-1.2a4.45,4.45,0,0,0,.59-.5.55.55,0,0,0,.13-.38.5.5,0,0,0-.18-.4.63.63,0,0,0-.44-.15.64.64,0,0,0-.43.15.51.51,0,0,0-.18.39.85.85,0,0,0,.23.54Zm6.76,4.16V92.3h.95a4.54,4.54,0,0,1,.91.07,1.81,1.81,0,0,1,.6.25,1.61,1.61,0,0,1,.54.66,1.91,1.91,0,0,1,.17.77,1.49,1.49,0,0,1-.51,1.15,1.63,1.63,0,0,1,.57.34,1.65,1.65,0,0,1,.51,1.24,1.68,1.68,0,0,1-.63,1.35,1.73,1.73,0,0,1-.67.35,3.8,3.8,0,0,1-1,.1Zm.95-3.58h.3a1.11,1.11,0,0,0,.76-.22,1,1,0,0,0,.26-.71.89.89,0,0,0-.26-.68,1,1,0,0,0-.73-.22h-.33V95Zm0,2.69h.59a1.55,1.55,0,0,0,.87-.2.73.73,0,0,0,.28-.32.78.78,0,0,0,.11-.42.92.92,0,0,0-.1-.42.91.91,0,0,0-.28-.33,1.8,1.8,0,0,0-1-.21h-.48v1.9Zm6-3.18a2,2,0,0,1,1.6.71,2.07,2.07,0,0,1,.51,1.38,2,2,0,0,1-.67,1.55,2,2,0,0,1-1.46.55,2,2,0,0,1-1.59-.72,2.07,2.07,0,0,1-.51-1.41,2,2,0,0,1,.68-1.51A2,2,0,0,1,417.79,94.51Zm0,.82a1.1,1.1,0,0,0-.93.44,1.31,1.31,0,0,0-.25.82,1.27,1.27,0,0,0,.35,1,1.13,1.13,0,0,0,.83.32,1.11,1.11,0,0,0,.92-.42,1.37,1.37,0,0,0,.26-.85,1.32,1.32,0,0,0-.35-1,1.2,1.2,0,0,0-.83-.32Zm4.32.14v3.11h-.92V95.47h-.39v-.85h.39V93.17h.92v1.45h.71v.85Zm2.51,0v3.11h-.92V95.47h-.39v-.85h.39V93.17h.92v1.45h.71v.85Zm2.49-3.76v6.87h-.92V91.71Zm2.31,2.91v4h-.92v-4ZM429,92.38a.58.58,0,0,1,.42.18.54.54,0,0,1,.18.42.58.58,0,0,1-.18.42.56.56,0,0,1-.42.18.58.58,0,0,1-.42-.18.58.58,0,0,1-.18-.43.54.54,0,0,1,.18-.41A.64.64,0,0,1,429,92.38Zm1.85,2.24h.92V95a1.91,1.91,0,0,1,.51-.37,1.44,1.44,0,0,1,.58-.1,1.69,1.69,0,0,1,.68.14,1.13,1.13,0,0,1,.48.4,1.92,1.92,0,0,1,.25,1.1v2.43h-.92V96.36a1.57,1.57,0,0,0-.12-.74.66.66,0,0,0-.62-.29.7.7,0,0,0-.65.3,2,2,0,0,0-.19,1v1.91h-.92v-4Zm8.65,0v3.87a4.07,4.07,0,0,1-.08.9,2,2,0,0,1-.26.6,1.74,1.74,0,0,1-.69.57,2.11,2.11,0,0,1-.9.19,1.87,1.87,0,0,1-1.47-.58,2,2,0,0,1-.46-1.35h.9a1.55,1.55,0,0,0,.15.65.83.83,0,0,0,.36.33,1.07,1.07,0,0,0,.53.13,1.13,1.13,0,0,0,.48-.11.91.91,0,0,0,.35-.29,1.63,1.63,0,0,0,.17-.83v-.56a1.7,1.7,0,0,1-2.1.34,1.92,1.92,0,0,1-1-1.85,2.1,2.1,0,0,1,.61-1.61,1.74,1.74,0,0,1,1.25-.51,1.56,1.56,0,0,1,1.24.56v-.45Zm-2,.71a1,1,0,0,0-.86.45,1.45,1.45,0,0,0-.23.83,1.28,1.28,0,0,0,.33,1,1.09,1.09,0,0,0,.77.32,1,1,0,0,0,.85-.42,1.35,1.35,0,0,0,.26-.85,1.27,1.27,0,0,0-.4-1A1.1,1.1,0,0,0,437.46,95.33Zm6.87.7v2.55h-.95V92.3h1.07a4.44,4.44,0,0,1,1.24.12,1.68,1.68,0,0,1,1,.87,1.92,1.92,0,0,1,.21.87,1.8,1.8,0,0,1-.55,1.34,2.18,2.18,0,0,1-1.59.53Zm0-.88h.35a1.53,1.53,0,0,0,1-.25.94.94,0,0,0,.32-.75.88.88,0,0,0-.35-.75,1.76,1.76,0,0,0-1-.23h-.31Zm4.53-3.44v6.87h-.92V91.71Zm4.32,2.91h.91v4h-.91v-.42a2.17,2.17,0,0,1-.59.42,1.54,1.54,0,0,1-.63.12,1.75,1.75,0,0,1-1.42-.67,2.21,2.21,0,0,1-.47-1.44,2,2,0,0,1,.59-1.55,1.74,1.74,0,0,1,1.28-.53,1.45,1.45,0,0,1,.65.13,1.84,1.84,0,0,1,.59.44v-.46Zm-1.07.71a1,1,0,0,0-.81.39,1.33,1.33,0,0,0-.3.87,1.4,1.4,0,0,0,.37,1,1,1,0,0,0,.73.29,1.06,1.06,0,0,0,.87-.41,1.34,1.34,0,0,0,.26-.86,1.26,1.26,0,0,0-.35-1A1.06,1.06,0,0,0,452.11,95.33Zm3.38-.71h.91V95a1.91,1.91,0,0,1,.51-.37,1.44,1.44,0,0,1,.58-.1,1.69,1.69,0,0,1,.68.14,1.13,1.13,0,0,1,.48.4,1.92,1.92,0,0,1,.25,1.1v2.43H458V96.36a1.57,1.57,0,0,0-.12-.74.69.69,0,0,0-.63-.29.71.71,0,0,0-.65.3,2,2,0,0,0-.19,1v1.91h-.91v-4Zm5.75.85v3.11h-.92V95.47h-.39v-.85h.39V93.17h.92v1.45h.7v.85Zm7.65-2.24-.77.46a1.64,1.64,0,0,0-.3-.4,1,1,0,0,0-1.3,0,.69.69,0,0,0-.25.54.63.63,0,0,0,.3.53,1.43,1.43,0,0,0,.26.15l.75.32a2.53,2.53,0,0,1,1.12.76,1.72,1.72,0,0,1,.35,1.09,1.92,1.92,0,0,1-.64,1.49,2,2,0,0,1-1.38.51,1.89,1.89,0,0,1-1.64-.83,2.61,2.61,0,0,1-.37-1l1-.21a2,2,0,0,0,.18.69,1,1,0,0,0,.37.35,1.13,1.13,0,0,0,.54.13,1,1,0,0,0,.77-.34,1,1,0,0,0,.26-.71.91.91,0,0,0-.44-.82,1.81,1.81,0,0,0-.29-.17l-.77-.34q-1.29-.54-1.29-1.59a1.47,1.47,0,0,1,.71-1.31,2,2,0,0,1,1.17-.35,1.81,1.81,0,0,1,1,.25,2.27,2.27,0,0,1,.72.8Zm2.28,7.52h-.91V94.62h.91v.43a1.69,1.69,0,0,1,1.23-.54,1.74,1.74,0,0,1,1.41.67,2.15,2.15,0,0,1,.47,1.44,2.09,2.09,0,0,1-.59,1.55,1.73,1.73,0,0,1-2.52,0Zm1.08-5.42a1.07,1.07,0,0,0-.87.41,1.38,1.38,0,0,0-.26.86,1.26,1.26,0,0,0,.35,1,1.06,1.06,0,0,0,.77.32,1,1,0,0,0,.81-.38,1.35,1.35,0,0,0,.3-.87,1.43,1.43,0,0,0-.37-1,1.07,1.07,0,0,0-.73-.29Zm6.16-.71h.92v4h-.92v-.42a2.14,2.14,0,0,1-.58.42,1.54,1.54,0,0,1-.63.12,1.77,1.77,0,0,1-1.43-.67,2.21,2.21,0,0,1-.47-1.44,2.09,2.09,0,0,1,.59-1.55,1.76,1.76,0,0,1,1.28-.53,1.53,1.53,0,0,1,.66.13,1.93,1.93,0,0,1,.58.44Zm-1.07.71a1,1,0,0,0-.81.39,1.33,1.33,0,0,0-.29.87,1.36,1.36,0,0,0,.37,1,1,1,0,0,0,.72.29,1,1,0,0,0,.87-.41,1.34,1.34,0,0,0,.27-.86,1.3,1.3,0,0,0-.35-1,1.1,1.1,0,0,0-.78-.32Zm3.38-.71h.91V95a1.88,1.88,0,0,1,.45-.37,1.14,1.14,0,0,1,.48-.1,1.46,1.46,0,0,1,.75.24l-.42.84a.87.87,0,0,0-.5-.19.62.62,0,0,0-.57.28,1.59,1.59,0,0,0-.19.86v2h-.91Zm6.91,2.2h-2.84a1.21,1.21,0,0,0,.14.51.92.92,0,0,0,.9.55,1,1,0,0,0,.56-.16,2.08,2.08,0,0,0,.5-.61l.78.43a2.72,2.72,0,0,1-.53.68,2,2,0,0,1-1.35.48,1.88,1.88,0,0,1-1.53-.69,2.2,2.2,0,0,1-.43-1.41,2.56,2.56,0,0,1,.15-.89,1.84,1.84,0,0,1,.43-.69,1.83,1.83,0,0,1,1.33-.51,1.93,1.93,0,0,1,1.2.38,2,2,0,0,1,.69,1.71v.22Zm-.94-.75a1,1,0,0,0-.18-.4.89.89,0,0,0-.74-.34.94.94,0,0,0-.59.2,1,1,0,0,0-.33.54Zm4.48-.78-.76.41c-.12-.25-.26-.37-.44-.37a.29.29,0,0,0-.21.09.25.25,0,0,0-.09.2.26.26,0,0,0,.1.21,2,2,0,0,0,.43.24,4.76,4.76,0,0,1,.75.4,1,1,0,0,1,.47.9,1.28,1.28,0,0,1-.41.95,1.39,1.39,0,0,1-1,.38,1.43,1.43,0,0,1-1.41-1l.78-.36a1.39,1.39,0,0,0,.3.41.53.53,0,0,0,.34.11.45.45,0,0,0,.34-.12.37.37,0,0,0,.13-.3.35.35,0,0,0-.13-.3,5.5,5.5,0,0,0-.79-.43,1.6,1.6,0,0,1-.6-.44,1,1,0,0,1-.17-.59,1.08,1.08,0,0,1,.38-.87,1.24,1.24,0,0,1,.86-.32,1.09,1.09,0,0,1,.66.19,1.37,1.37,0,0,1,.47.59Z"/></g></svg>